<svg width="28" height="28" viewBox="0 0 28 28" fill="none" xmlns="http://www.w3.org/2000/svg">
<mask id="mask0_1029_48" style="mask-type:alpha" maskUnits="userSpaceOnUse" x="0" y="0" width="28" height="28">
<rect width="28" height="28" fill="#D9D9D9"/>
</mask>
<g mask="url(#mask0_1029_48)">
<path d="M12.8333 22.6625V14.6708L5.83333 10.6167V18.6083L12.8333 22.6625ZM15.1667 22.6625L22.1667 18.6083V10.6167L15.1667 14.6708V22.6625ZM14 12.6583L20.9125 8.6625L14 4.66666L7.0875 8.6625L14 12.6583ZM4.66667 20.65C4.29722 20.4361 4.01042 20.1542 3.80625 19.8042C3.60208 19.4542 3.5 19.0653 3.5 18.6375V9.3625C3.5 8.93472 3.60208 8.54583 3.80625 8.19583C4.01042 7.84583 4.29722 7.56388 4.66667 7.35L12.8333 2.65416C13.2028 2.44027 13.5917 2.33333 14 2.33333C14.4083 2.33333 14.7972 2.44027 15.1667 2.65416L23.3333 7.35C23.7028 7.56388 23.9896 7.84583 24.1938 8.19583C24.3979 8.54583 24.5 8.93472 24.5 9.3625V18.6375C24.5 19.0653 24.3979 19.4542 24.1938 19.8042C23.9896 20.1542 23.7028 20.4361 23.3333 20.65L15.1667 25.3458C14.7972 25.5597 14.4083 25.6667 14 25.6667C13.5917 25.6667 13.2028 25.5597 12.8333 25.3458L4.66667 20.65Z" fill="white"/>
</g>
</svg>
